<svg width="357" height="200" viewBox="0 0 357 200" fill="none" xmlns="http://www.w3.org/2000/svg">
<mask id="path-1-outside-1_1_17" maskUnits="userSpaceOnUse" x="6" y="31" width="104" height="116" fill="black">
<rect fill="white" x="6" y="31" width="104" height="116"/>
<path d="M9.36 34.8H74.88C85.8 34.8 93.704 37.296 98.592 42.288C103.584 47.176 106.08 55.08 106.08 66V81.6C106.08 92.52 103.584 100.476 98.592 105.468C93.704 110.356 85.8 112.8 74.88 112.8H37.44V144H9.36V34.8ZM78 66C78 59.76 74.88 56.64 68.64 56.64H37.44V90.96H68.64C74.88 90.96 78 87.84 78 81.6V66Z"/>
</mask>
<path d="M9.36 34.8H74.88C85.8 34.8 93.704 37.296 98.592 42.288C103.584 47.176 106.08 55.08 106.08 66V81.6C106.08 92.52 103.584 100.476 98.592 105.468C93.704 110.356 85.8 112.8 74.88 112.8H37.44V144H9.36V34.8ZM78 66C78 59.76 74.88 56.64 68.64 56.64H37.44V90.96H68.64C74.88 90.96 78 87.84 78 81.6V66Z" fill="#E76F51"/>
<path d="M9.36 34.8V31.8H6.36V34.8H9.36ZM98.592 42.288L96.4485 44.3869L96.4706 44.4094L96.4931 44.4315L98.592 42.288ZM98.592 105.468L100.713 107.589L100.713 107.589L98.592 105.468ZM37.44 112.8V109.8H34.44V112.8H37.44ZM37.44 144V147H40.44V144H37.44ZM9.36 144H6.36V147H9.36V144ZM37.44 56.64V53.64H34.44V56.64H37.44ZM37.44 90.96H34.44V93.96H37.44V90.96ZM9.36 37.8H74.88V31.8H9.36V37.8ZM74.88 37.8C85.4361 37.8 92.3733 40.225 96.4485 44.3869L100.736 40.1891C95.0347 34.367 86.1639 31.8 74.88 31.8V37.8ZM96.4931 44.4315C100.655 48.5067 103.08 55.4439 103.08 66H109.08C109.08 54.7161 106.513 45.8453 100.691 40.1445L96.4931 44.4315ZM103.08 66V81.6H109.08V66H103.08ZM103.08 81.6C103.08 92.149 100.658 99.1594 96.4707 103.347L100.713 107.589C106.51 101.793 109.08 92.891 109.08 81.6H103.08ZM96.4707 103.347C92.3972 107.42 85.4506 109.8 74.88 109.8V115.8C86.1494 115.8 95.0108 113.292 100.713 107.589L96.4707 103.347ZM74.88 109.8H37.44V115.8H74.88V109.8ZM34.44 112.8V144H40.44V112.8H34.44ZM37.44 141H9.36V147H37.44V141ZM12.36 144V34.8H6.36V144H12.36ZM81 66C81 62.4176 80.1024 59.1797 77.7813 56.8587C75.4603 54.5376 72.2224 53.64 68.64 53.64V59.64C71.2976 59.64 72.7397 60.3024 73.5387 61.1013C74.3376 61.9003 75 63.3424 75 66H81ZM68.64 53.64H37.44V59.64H68.64V53.64ZM34.44 56.64V90.96H40.44V56.64H34.44ZM37.44 93.96H68.64V87.96H37.44V93.96ZM68.64 93.96C72.2224 93.96 75.4603 93.0624 77.7813 90.7413C80.1024 88.4203 81 85.1824 81 81.6H75C75 84.2576 74.3376 85.6997 73.5387 86.4987C72.7397 87.2976 71.2976 87.96 68.64 87.96V93.96ZM81 81.6V66H75V81.6H81Z" fill="#212529" mask="url(#path-1-outside-1_1_17)"/>
<mask id="path-3-outside-2_1_17" maskUnits="userSpaceOnUse" x="48" y="122" width="210" height="57" fill="black">
<rect fill="white" x="48" y="122" width="210" height="57"/>
<path d="M64.28 165.92H90.56V176H51.32V125.6H64.28V165.92ZM109.617 176H95.5769L114.657 125.6H129.057L148.137 176H134.097L130.857 167H112.857L109.617 176ZM116.097 157.64H127.617L121.857 140.72L116.097 157.64ZM194.894 135.68L169.694 165.92H194.894V176H153.854V165.92L179.054 135.68H153.854V125.6H194.894V135.68ZM214.679 176H200.639L219.719 125.6H234.119L253.199 176H239.159L235.919 167H217.919L214.679 176ZM221.159 157.64H232.679L226.919 140.72L221.159 157.64Z"/>
</mask>
<path d="M64.28 165.92H90.56V176H51.32V125.6H64.28V165.92ZM109.617 176H95.5769L114.657 125.6H129.057L148.137 176H134.097L130.857 167H112.857L109.617 176ZM116.097 157.64H127.617L121.857 140.72L116.097 157.64ZM194.894 135.68L169.694 165.92H194.894V176H153.854V165.92L179.054 135.68H153.854V125.6H194.894V135.68ZM214.679 176H200.639L219.719 125.6H234.119L253.199 176H239.159L235.919 167H217.919L214.679 176ZM221.159 157.64H232.679L226.919 140.72L221.159 157.64Z" fill="#E76F51"/>
<path d="M64.28 165.92H61.28V168.92H64.28V165.92ZM90.56 165.92H93.56V162.92H90.56V165.92ZM90.56 176V179H93.56V176H90.56ZM51.32 176H48.32V179H51.32V176ZM51.32 125.6V122.6H48.32V125.6H51.32ZM64.28 125.6H67.28V122.6H64.28V125.6ZM64.28 168.92H90.56V162.92H64.28V168.92ZM87.56 165.92V176H93.56V165.92H87.56ZM90.56 173H51.32V179H90.56V173ZM54.32 176V125.6H48.32V176H54.32ZM51.32 128.6H64.28V122.6H51.32V128.6ZM61.28 125.6V165.92H67.28V125.6H61.28ZM109.617 176V179H111.725L112.44 177.016L109.617 176ZM95.5769 176L92.7712 174.938L91.2334 179H95.5769V176ZM114.657 125.6V122.6H112.585L111.851 124.538L114.657 125.6ZM129.057 125.6L131.863 124.538L131.129 122.6H129.057V125.6ZM148.137 176V179H152.48L150.943 174.938L148.137 176ZM134.097 176L131.274 177.016L131.988 179H134.097V176ZM130.857 167L133.68 165.984L132.965 164H130.857V167ZM112.857 167V164H110.748L110.034 165.984L112.857 167ZM116.097 157.64L113.257 156.673L111.907 160.64H116.097V157.64ZM127.617 157.64V160.64H131.807L130.457 156.673L127.617 157.64ZM121.857 140.72L124.697 139.753L121.857 131.411L119.017 139.753L121.857 140.72ZM109.617 173H95.5769V179H109.617V173ZM98.3826 177.062L117.463 126.662L111.851 124.538L92.7712 174.938L98.3826 177.062ZM114.657 128.6H129.057V122.6H114.657V128.6ZM126.251 126.662L145.331 177.062L150.943 174.938L131.863 124.538L126.251 126.662ZM148.137 173H134.097V179H148.137V173ZM136.92 174.984L133.68 165.984L128.034 168.016L131.274 177.016L136.92 174.984ZM130.857 164H112.857V170H130.857V164ZM110.034 165.984L106.794 174.984L112.44 177.016L115.68 168.016L110.034 165.984ZM116.097 160.64H127.617V154.64H116.097V160.64ZM130.457 156.673L124.697 139.753L119.017 141.687L124.777 158.607L130.457 156.673ZM119.017 139.753L113.257 156.673L118.937 158.607L124.697 141.687L119.017 139.753ZM194.894 135.68L197.199 137.601L197.894 136.766V135.68H194.894ZM169.694 165.92L167.389 163.999L163.289 168.92H169.694V165.92ZM194.894 165.92H197.894V162.92H194.894V165.92ZM194.894 176V179H197.894V176H194.894ZM153.854 176H150.854V179H153.854V176ZM153.854 165.92L151.549 163.999L150.854 164.834V165.92H153.854ZM179.054 135.68L181.359 137.601L185.459 132.68H179.054V135.68ZM153.854 135.68H150.854V138.68H153.854V135.68ZM153.854 125.6V122.6H150.854V125.6H153.854ZM194.894 125.6H197.894V122.6H194.894V125.6ZM192.589 133.759L167.389 163.999L171.999 167.841L197.199 137.601L192.589 133.759ZM169.694 168.92H194.894V162.92H169.694V168.92ZM191.894 165.92V176H197.894V165.92H191.894ZM194.894 173H153.854V179H194.894V173ZM156.854 176V165.92H150.854V176H156.854ZM156.159 167.841L181.359 137.601L176.749 133.759L151.549 163.999L156.159 167.841ZM179.054 132.68H153.854V138.68H179.054V132.68ZM156.854 135.68V125.6H150.854V135.68H156.854ZM153.854 128.6H194.894V122.6H153.854V128.6ZM191.894 125.6V135.68H197.894V125.6H191.894ZM214.679 176V179H216.788L217.502 177.016L214.679 176ZM200.639 176L197.834 174.938L196.296 179H200.639V176ZM219.719 125.6V122.6H217.647L216.914 124.538L219.719 125.6ZM234.119 125.6L236.925 124.538L236.191 122.6H234.119V125.6ZM253.199 176V179H257.543L256.005 174.938L253.199 176ZM239.159 176L236.337 177.016L237.051 179H239.159V176ZM235.919 167L238.742 165.984L238.028 164H235.919V167ZM217.919 167V164H215.811L215.097 165.984L217.919 167ZM221.159 157.64L218.319 156.673L216.969 160.64H221.159V157.64ZM232.679 157.64V160.64H236.87L235.519 156.673L232.679 157.64ZM226.919 140.72L229.759 139.753L226.919 131.411L224.079 139.753L226.919 140.72ZM214.679 173H200.639V179H214.679V173ZM203.445 177.062L222.525 126.662L216.914 124.538L197.834 174.938L203.445 177.062ZM219.719 128.6H234.119V122.6H219.719V128.6ZM231.314 126.662L250.394 177.062L256.005 174.938L236.925 124.538L231.314 126.662ZM253.199 173H239.159V179H253.199V173ZM241.982 174.984L238.742 165.984L233.097 168.016L236.337 177.016L241.982 174.984ZM235.919 164H217.919V170H235.919V164ZM215.097 165.984L211.857 174.984L217.502 177.016L220.742 168.016L215.097 165.984ZM221.159 160.64H232.679V154.64H221.159V160.64ZM235.519 156.673L229.759 139.753L224.079 141.687L229.839 158.607L235.519 156.673ZM224.079 139.753L218.319 156.673L223.999 158.607L229.759 141.687L224.079 139.753Z" fill="#212529" mask="url(#path-3-outside-2_1_17)"/>
<mask id="path-5-outside-3_1_17" maskUnits="userSpaceOnUse" x="112" y="44" width="224" height="68" fill="black">
<rect fill="white" x="112" y="44" width="224" height="68"/>
<path d="M147.32 109H115.64V96.68H123.56V59.72H115.64V47.4H147.32V59.72H139.4V96.68H147.32V109ZM195.873 47.4H213.473L193.673 78.2L213.913 109H196.313L183.993 89.64L171.673 109H154.073L174.313 78.2L154.513 47.4H172.025L183.993 66.76L195.873 47.4ZM272.167 109H223.327V47.4H272.167V59.72H239.167V71.6H265.127V83.92H239.167V96.68H272.167V109ZM300.026 96.68H332.146V109H284.186V47.4H300.026V96.68Z"/>
</mask>
<path d="M147.32 109H115.64V96.68H123.56V59.72H115.64V47.4H147.32V59.72H139.4V96.68H147.32V109ZM195.873 47.4H213.473L193.673 78.2L213.913 109H196.313L183.993 89.64L171.673 109H154.073L174.313 78.2L154.513 47.4H172.025L183.993 66.76L195.873 47.4ZM272.167 109H223.327V47.4H272.167V59.72H239.167V71.6H265.127V83.92H239.167V96.68H272.167V109ZM300.026 96.68H332.146V109H284.186V47.4H300.026V96.68Z" fill="#E76F51"/>
<path d="M147.32 109V112H150.32V109H147.32ZM115.64 109H112.64V112H115.64V109ZM115.64 96.68V93.68H112.64V96.68H115.64ZM123.56 96.68V99.68H126.56V96.68H123.56ZM123.56 59.72H126.56V56.72H123.56V59.72ZM115.64 59.72H112.64V62.72H115.64V59.72ZM115.64 47.4V44.4H112.64V47.4H115.64ZM147.32 47.4H150.32V44.4H147.32V47.4ZM147.32 59.72V62.72H150.32V59.72H147.32ZM139.4 59.72V56.72H136.4V59.72H139.4ZM139.4 96.68H136.4V99.68H139.4V96.68ZM147.32 96.68H150.32V93.68H147.32V96.68ZM147.32 106H115.64V112H147.32V106ZM118.64 109V96.68H112.64V109H118.64ZM115.64 99.68H123.56V93.68H115.64V99.68ZM126.56 96.68V59.72H120.56V96.68H126.56ZM123.56 56.72H115.64V62.72H123.56V56.72ZM118.64 59.72V47.4H112.64V59.72H118.64ZM115.64 50.4H147.32V44.4H115.64V50.4ZM144.32 47.4V59.72H150.32V47.4H144.32ZM147.32 56.72H139.4V62.72H147.32V56.72ZM136.4 59.72V96.68H142.4V59.72H136.4ZM139.4 99.68H147.32V93.68H139.4V99.68ZM144.32 96.68V109H150.32V96.68H144.32ZM195.873 47.4V44.4H194.194L193.316 45.8309L195.873 47.4ZM213.473 47.4L215.997 49.0223L218.968 44.4H213.473V47.4ZM193.673 78.2L191.15 76.5777L190.095 78.218L191.166 79.8475L193.673 78.2ZM213.913 109V112H219.474L216.42 107.352L213.913 109ZM196.313 109L193.782 110.611L194.666 112H196.313V109ZM183.993 89.64L186.524 88.0294L183.993 84.0521L181.462 88.0294L183.993 89.64ZM171.673 109V112H173.32L174.204 110.611L171.673 109ZM154.073 109L151.566 107.352L148.512 112H154.073V109ZM174.313 78.2L176.82 79.8475L177.891 78.218L176.837 76.5777L174.313 78.2ZM154.513 47.4V44.4H149.018L151.99 49.0223L154.513 47.4ZM172.025 47.4L174.577 45.8225L173.698 44.4H172.025V47.4ZM183.993 66.76L181.441 68.3375L184.003 72.4806L186.55 68.329L183.993 66.76ZM195.873 50.4H213.473V44.4H195.873V50.4ZM210.95 45.7777L191.15 76.5777L196.197 79.8223L215.997 49.0223L210.95 45.7777ZM191.166 79.8475L211.406 110.648L216.42 107.352L196.18 76.5525L191.166 79.8475ZM213.913 106H196.313V112H213.913V106ZM198.844 107.389L186.524 88.0294L181.462 91.2506L193.782 110.611L198.844 107.389ZM181.462 88.0294L169.142 107.389L174.204 110.611L186.524 91.2506L181.462 88.0294ZM171.673 106H154.073V112H171.673V106ZM156.58 110.648L176.82 79.8475L171.806 76.5525L151.566 107.352L156.58 110.648ZM176.837 76.5777L157.037 45.7777L151.99 49.0223L171.79 79.8223L176.837 76.5777ZM154.513 50.4H172.025V44.4H154.513V50.4ZM169.473 48.9775L181.441 68.3375L186.545 65.1825L174.577 45.8225L169.473 48.9775ZM186.55 68.329L198.43 48.969L193.316 45.8309L181.436 65.1909L186.55 68.329ZM272.167 109V112H275.167V109H272.167ZM223.327 109H220.327V112H223.327V109ZM223.327 47.4V44.4H220.327V47.4H223.327ZM272.167 47.4H275.167V44.4H272.167V47.4ZM272.167 59.72V62.72H275.167V59.72H272.167ZM239.167 59.72V56.72H236.167V59.72H239.167ZM239.167 71.6H236.167V74.6H239.167V71.6ZM265.127 71.6H268.127V68.6H265.127V71.6ZM265.127 83.92V86.92H268.127V83.92H265.127ZM239.167 83.92V80.92H236.167V83.92H239.167ZM239.167 96.68H236.167V99.68H239.167V96.68ZM272.167 96.68H275.167V93.68H272.167V96.68ZM272.167 106H223.327V112H272.167V106ZM226.327 109V47.4H220.327V109H226.327ZM223.327 50.4H272.167V44.4H223.327V50.4ZM269.167 47.4V59.72H275.167V47.4H269.167ZM272.167 56.72H239.167V62.72H272.167V56.72ZM236.167 59.72V71.6H242.167V59.72H236.167ZM239.167 74.6H265.127V68.6H239.167V74.6ZM262.127 71.6V83.92H268.127V71.6H262.127ZM265.127 80.92H239.167V86.92H265.127V80.92ZM236.167 83.92V96.68H242.167V83.92H236.167ZM239.167 99.68H272.167V93.68H239.167V99.68ZM269.167 96.68V109H275.167V96.68H269.167ZM300.026 96.68H297.026V99.68H300.026V96.68ZM332.146 96.68H335.146V93.68H332.146V96.68ZM332.146 109V112H335.146V109H332.146ZM284.186 109H281.186V112H284.186V109ZM284.186 47.4V44.4H281.186V47.4H284.186ZM300.026 47.4H303.026V44.4H300.026V47.4ZM300.026 99.68H332.146V93.68H300.026V99.68ZM329.146 96.68V109H335.146V96.68H329.146ZM332.146 106H284.186V112H332.146V106ZM287.186 109V47.4H281.186V109H287.186ZM284.186 50.4H300.026V44.4H284.186V50.4ZM297.026 47.4V96.68H303.026V47.4H297.026Z" fill="#212529" mask="url(#path-5-outside-3_1_17)"/>
</svg>
